<?xml version="1.0" encoding="UTF-8" standalone="no"?>
<!DOCTYPE svg PUBLIC "-//W3C//DTD SVG 1.1//EN"
 "http://www.w3.org/Graphics/SVG/1.1/DTD/svg11.dtd">
<!-- Generated by graphviz version 2.43.0 (0)
 -->
<!-- Title: %3 Pages: 1 -->
<svg width="1967pt" height="692pt"
 viewBox="0.00 0.00 1967.00 692.00" xmlns="http://www.w3.org/2000/svg" xmlns:xlink="http://www.w3.org/1999/xlink">
<g id="graph0" class="graph" transform="scale(1 1) rotate(0) translate(4 688)">
<title>%3</title>
<polygon fill="white" stroke="transparent" points="-4,4 -4,-688 1963,-688 1963,4 -4,4"/>
<!-- 0 -->
<g id="node1" class="node">
<title>0</title>
<polygon fill="none" stroke="black" points="1215.5,-108 1102.5,-108 1102.5,-72 1215.5,-72 1215.5,-108"/>
<text text-anchor="middle" x="1159" y="-86.3" font-family="Times,serif" font-size="14.00">libsignal&#45;core</text>
</g>
<!-- 1 -->
<g id="node2" class="node">
<title>1</title>
<polygon fill="none" stroke="black" points="930,-36 786,-36 786,0 930,0 930,-36"/>
<text text-anchor="middle" x="858" y="-14.3" font-family="Times,serif" font-size="14.00">curve25519&#45;dalek</text>
</g>
<!-- 0&#45;&gt;1 -->
<g id="edge1" class="edge">
<title>0&#45;&gt;1</title>
<path fill="none" stroke="black" d="M1102.38,-75.83C1056.55,-65.17 991.37,-50.02 939.85,-38.03"/>
<polygon fill="black" stroke="black" points="940.6,-34.62 930.07,-35.76 939.01,-41.43 940.6,-34.62"/>
</g>
<!-- 2 -->
<g id="node3" class="node">
<title>2</title>
<polygon fill="none" stroke="black" points="1716.5,-180 1657.5,-180 1657.5,-144 1716.5,-144 1716.5,-180"/>
<text text-anchor="middle" x="1687" y="-158.3" font-family="Times,serif" font-size="14.00">attest</text>
</g>
<!-- 3 -->
<g id="node4" class="node">
<title>3</title>
<polygon fill="none" stroke="black" points="814,-180 704,-180 704,-144 814,-144 814,-180"/>
<text text-anchor="middle" x="759" y="-158.3" font-family="Times,serif" font-size="14.00">signal&#45;crypto</text>
</g>
<!-- 3&#45;&gt;0 -->
<g id="edge2" class="edge">
<title>3&#45;&gt;0</title>
<path fill="none" stroke="black" d="M814.2,-151.34C886.81,-138.63 1014.29,-116.32 1092.24,-102.68"/>
<polygon fill="black" stroke="black" points="1093.19,-106.07 1102.43,-100.9 1091.98,-99.18 1093.19,-106.07"/>
</g>
<!-- 4 -->
<g id="node5" class="node">
<title>4</title>
<polygon fill="none" stroke="black" points="751.5,-396 626.5,-396 626.5,-360 751.5,-360 751.5,-396"/>
<text text-anchor="middle" x="689" y="-374.3" font-family="Times,serif" font-size="14.00">device&#45;transfer</text>
</g>
<!-- 5 -->
<g id="node6" class="node">
<title>5</title>
<polygon fill="none" stroke="black" points="1696,-252 1552,-252 1552,-216 1696,-216 1696,-252"/>
<text text-anchor="middle" x="1624" y="-230.3" font-family="Times,serif" font-size="14.00">libsignal&#45;keytrans</text>
</g>
<!-- 5&#45;&gt;1 -->
<g id="edge3" class="edge">
<title>5&#45;&gt;1</title>
<path fill="none" stroke="black" d="M1682.07,-215.96C1699.23,-207.92 1716.06,-196.37 1726,-180 1734.31,-166.32 1736.48,-156.09 1726,-144 1674.81,-84.91 1146.95,-40.17 940.31,-24.79"/>
<polygon fill="black" stroke="black" points="940.35,-21.29 930.12,-24.04 939.83,-28.27 940.35,-21.29"/>
</g>
<!-- 6 -->
<g id="node7" class="node">
<title>6</title>
<polygon fill="none" stroke="black" points="1392.5,-396 1285.5,-396 1285.5,-360 1392.5,-360 1392.5,-396"/>
<text text-anchor="middle" x="1339" y="-374.3" font-family="Times,serif" font-size="14.00">signal&#45;media</text>
</g>
<!-- 7 -->
<g id="node8" class="node">
<title>7</title>
<polygon fill="none" stroke="black" points="532,-396 332,-396 332,-360 532,-360 532,-396"/>
<text text-anchor="middle" x="432" y="-374.3" font-family="Times,serif" font-size="14.00">libsignal&#45;message&#45;backup</text>
</g>
<!-- 7&#45;&gt;0 -->
<g id="edge5" class="edge">
<title>7&#45;&gt;0</title>
<path fill="none" stroke="black" d="M532.1,-361.98C632.98,-346.8 774.21,-325.37 777,-324 797.89,-313.77 794.92,-299.75 815,-288 861.58,-260.73 882.58,-275.86 931,-252 951.88,-241.71 1069.85,-156.17 1127.41,-114.14"/>
<polygon fill="black" stroke="black" points="1129.77,-116.75 1135.78,-108.02 1125.64,-111.1 1129.77,-116.75"/>
</g>
<!-- 7&#45;&gt;3 -->
<g id="edge8" class="edge">
<title>7&#45;&gt;3</title>
<path fill="none" stroke="black" d="M495.81,-359.96C555.67,-341.39 644.88,-306.79 706,-252 725.25,-234.75 739.59,-208.82 748.46,-189.39"/>
<polygon fill="black" stroke="black" points="751.69,-190.74 752.49,-180.17 745.28,-187.93 751.69,-190.74"/>
</g>
<!-- 8 -->
<g id="node9" class="node">
<title>8</title>
<polygon fill="none" stroke="black" points="697,-252 523,-252 523,-216 697,-216 697,-252"/>
<text text-anchor="middle" x="610" y="-230.3" font-family="Times,serif" font-size="14.00">libsignal&#45;account&#45;keys</text>
</g>
<!-- 7&#45;&gt;8 -->
<g id="edge4" class="edge">
<title>7&#45;&gt;8</title>
<path fill="none" stroke="black" d="M453.47,-359.87C485.14,-334.6 544.5,-287.25 580.32,-258.68"/>
<polygon fill="black" stroke="black" points="582.82,-261.16 588.45,-252.19 578.45,-255.69 582.82,-261.16"/>
</g>
<!-- 9 -->
<g id="node10" class="node">
<title>9</title>
<polygon fill="none" stroke="black" points="1137,-252 997,-252 997,-216 1137,-216 1137,-252"/>
<text text-anchor="middle" x="1067" y="-230.3" font-family="Times,serif" font-size="14.00">libsignal&#45;protocol</text>
</g>
<!-- 7&#45;&gt;9 -->
<g id="edge6" class="edge">
<title>7&#45;&gt;9</title>
<path fill="none" stroke="black" d="M532.08,-361.99C536.78,-361.31 541.44,-360.64 546,-360 665.43,-343.1 703.36,-369.67 815,-324 839.68,-313.9 838.97,-299.57 863,-288 901.74,-269.34 947.89,-256.65 986.49,-248.37"/>
<polygon fill="black" stroke="black" points="987.57,-251.72 996.65,-246.26 986.15,-244.87 987.57,-251.72"/>
</g>
<!-- 11 -->
<g id="node12" class="node">
<title>11</title>
<polygon fill="none" stroke="black" points="922.5,-252 809.5,-252 809.5,-216 922.5,-216 922.5,-252"/>
<text text-anchor="middle" x="866" y="-230.3" font-family="Times,serif" font-size="14.00">libsignal&#45;svrb</text>
</g>
<!-- 7&#45;&gt;11 -->
<g id="edge7" class="edge">
<title>7&#45;&gt;11</title>
<path fill="none" stroke="black" d="M532.28,-362.08C614.4,-349.47 720.03,-332.18 739,-324 763.49,-313.44 765.25,-303.43 787,-288 801.39,-277.79 817.53,-266.87 831.45,-257.61"/>
<polygon fill="black" stroke="black" points="833.39,-260.53 839.79,-252.09 829.52,-254.69 833.39,-260.53"/>
</g>
<!-- 12 -->
<g id="node13" class="node">
<title>12</title>
<polygon fill="none" stroke="black" points="199.5,-324 104.5,-324 104.5,-288 199.5,-288 199.5,-324"/>
<text text-anchor="middle" x="152" y="-302.3" font-family="Times,serif" font-size="14.00">usernames</text>
</g>
<!-- 7&#45;&gt;12 -->
<g id="edge9" class="edge">
<title>7&#45;&gt;12</title>
<path fill="none" stroke="black" d="M363.86,-359.97C316.61,-348.15 254.37,-332.59 209.59,-321.4"/>
<polygon fill="black" stroke="black" points="210.29,-317.97 199.74,-318.94 208.59,-324.76 210.29,-317.97"/>
</g>
<!-- 14 -->
<g id="node15" class="node">
<title>14</title>
<polygon fill="none" stroke="black" points="330,-324 256,-324 256,-288 330,-288 330,-324"/>
<text text-anchor="middle" x="293" y="-302.3" font-family="Times,serif" font-size="14.00">zkgroup</text>
</g>
<!-- 7&#45;&gt;14 -->
<g id="edge11" class="edge">
<title>7&#45;&gt;14</title>
<path fill="none" stroke="black" d="M398,-359.88C379.4,-350.51 356.17,-338.81 336.29,-328.8"/>
<polygon fill="black" stroke="black" points="337.64,-325.56 327.13,-324.19 334.49,-331.81 337.64,-325.56"/>
</g>
<!-- 15 -->
<g id="node16" class="node">
<title>15</title>
<polygon fill="none" stroke="black" points="334,-252 230,-252 230,-216 334,-216 334,-252"/>
<text text-anchor="middle" x="282" y="-230.3" font-family="Times,serif" font-size="14.00">zkcredential</text>
</g>
<!-- 7&#45;&gt;15 -->
<g id="edge10" class="edge">
<title>7&#45;&gt;15</title>
<path fill="none" stroke="black" d="M414.24,-359.86C395.58,-341.88 365.34,-312.84 339,-288 328.92,-278.49 317.76,-268.09 308.01,-259.04"/>
<polygon fill="black" stroke="black" points="310.26,-256.35 300.55,-252.12 305.5,-261.48 310.26,-256.35"/>
</g>
<!-- 8&#45;&gt;0 -->
<g id="edge12" class="edge">
<title>8&#45;&gt;0</title>
<path fill="none" stroke="black" d="M620.82,-215.82C635.03,-194.91 662.09,-160.35 695,-144 729.75,-126.74 971.96,-105.66 1091.95,-96.12"/>
<polygon fill="black" stroke="black" points="1092.43,-99.59 1102.12,-95.32 1091.88,-92.62 1092.43,-99.59"/>
</g>
<!-- 8&#45;&gt;3 -->
<g id="edge13" class="edge">
<title>8&#45;&gt;3</title>
<path fill="none" stroke="black" d="M646.45,-215.88C666.64,-206.39 691.92,-194.51 713.41,-184.42"/>
<polygon fill="black" stroke="black" points="715.11,-187.49 722.67,-180.07 712.13,-181.15 715.11,-187.49"/>
</g>
<!-- 9&#45;&gt;0 -->
<g id="edge14" class="edge">
<title>9&#45;&gt;0</title>
<path fill="none" stroke="black" d="M1078.1,-215.87C1094.05,-191.24 1123.6,-145.64 1142.23,-116.88"/>
<polygon fill="black" stroke="black" points="1145.36,-118.48 1147.86,-108.19 1139.49,-114.68 1145.36,-118.48"/>
</g>
<!-- 9&#45;&gt;3 -->
<g id="edge15" class="edge">
<title>9&#45;&gt;3</title>
<path fill="none" stroke="black" d="M996.72,-217.03C944.79,-205.23 874.61,-189.28 823.98,-177.77"/>
<polygon fill="black" stroke="black" points="824.65,-174.33 814.13,-175.53 823.1,-181.16 824.65,-174.33"/>
</g>
<!-- 10 -->
<g id="node11" class="node">
<title>10</title>
<polygon fill="none" stroke="black" points="940,-108 886,-108 886,-72 940,-72 940,-108"/>
<text text-anchor="middle" x="913" y="-86.3" font-family="Times,serif" font-size="14.00">spqr</text>
</g>
<!-- 9&#45;&gt;10 -->
<g id="edge16" class="edge">
<title>9&#45;&gt;10</title>
<path fill="none" stroke="black" d="M1048.42,-215.87C1021.14,-190.71 970.1,-143.65 939.07,-115.04"/>
<polygon fill="black" stroke="black" points="941.37,-112.4 931.64,-108.19 936.62,-117.54 941.37,-112.4"/>
</g>
<!-- 10&#45;&gt;1 -->
<g id="edge17" class="edge">
<title>10&#45;&gt;1</title>
<path fill="none" stroke="black" d="M899.4,-71.7C892.88,-63.39 884.93,-53.28 877.75,-44.14"/>
<polygon fill="black" stroke="black" points="880.37,-41.81 871.44,-36.1 874.87,-46.13 880.37,-41.81"/>
</g>
<!-- 11&#45;&gt;1 -->
<g id="edge18" class="edge">
<title>11&#45;&gt;1</title>
<path fill="none" stroke="black" d="M865.36,-215.85C863.98,-178.83 860.7,-91.18 859.02,-46.39"/>
<polygon fill="black" stroke="black" points="862.52,-46.09 858.64,-36.23 855.52,-46.36 862.52,-46.09"/>
</g>
<!-- 11&#45;&gt;3 -->
<g id="edge19" class="edge">
<title>11&#45;&gt;3</title>
<path fill="none" stroke="black" d="M839.82,-215.88C825.96,-206.81 808.76,-195.55 793.79,-185.76"/>
<polygon fill="black" stroke="black" points="795.56,-182.74 785.28,-180.19 791.73,-188.59 795.56,-182.74"/>
</g>
<!-- 12&#45;&gt;1 -->
<g id="edge20" class="edge">
<title>12&#45;&gt;1</title>
<path fill="none" stroke="black" d="M151.6,-287.68C151.64,-256.64 155.3,-190.45 183,-144 208.88,-100.6 224.22,-91.11 271,-72 360.29,-35.52 636.43,-24.02 775.78,-20.5"/>
<polygon fill="black" stroke="black" points="776.07,-24 785.98,-20.25 775.9,-17 776.07,-24"/>
</g>
<!-- 12&#45;&gt;3 -->
<g id="edge22" class="edge">
<title>12&#45;&gt;3</title>
<path fill="none" stroke="black" d="M199.67,-291.9C255.71,-276.49 341.36,-252.86 343,-252 365.06,-240.41 363.23,-226.14 386,-216 439.7,-192.08 601.9,-175.62 693.75,-167.94"/>
<polygon fill="black" stroke="black" points="694.09,-171.42 703.77,-167.11 693.52,-164.44 694.09,-171.42"/>
</g>
<!-- 13 -->
<g id="node14" class="node">
<title>13</title>
<polygon fill="none" stroke="black" points="259.5,-180 192.5,-180 192.5,-144 259.5,-144 259.5,-180"/>
<text text-anchor="middle" x="226" y="-158.3" font-family="Times,serif" font-size="14.00">poksho</text>
</g>
<!-- 12&#45;&gt;13 -->
<g id="edge21" class="edge">
<title>12&#45;&gt;13</title>
<path fill="none" stroke="black" d="M160.93,-287.87C173.7,-263.35 197.32,-218.03 212.32,-189.26"/>
<polygon fill="black" stroke="black" points="215.52,-190.67 217.04,-180.19 209.32,-187.44 215.52,-190.67"/>
</g>
<!-- 13&#45;&gt;1 -->
<g id="edge23" class="edge">
<title>13&#45;&gt;1</title>
<path fill="none" stroke="black" d="M239.24,-143.73C256.44,-122.71 288.63,-88.05 325,-72 403.58,-37.31 646.33,-25.09 775.38,-20.97"/>
<polygon fill="black" stroke="black" points="775.72,-24.46 785.6,-20.65 775.5,-17.46 775.72,-24.46"/>
</g>
<!-- 14&#45;&gt;0 -->
<g id="edge25" class="edge">
<title>14&#45;&gt;0</title>
<path fill="none" stroke="black" d="M322.08,-287.81C381.05,-253.85 519.94,-178.48 647,-144 688.99,-132.61 963.34,-107.88 1092.26,-96.7"/>
<polygon fill="black" stroke="black" points="1092.75,-100.17 1102.41,-95.82 1092.14,-93.19 1092.75,-100.17"/>
</g>
<!-- 14&#45;&gt;8 -->
<g id="edge24" class="edge">
<title>14&#45;&gt;8</title>
<path fill="none" stroke="black" d="M330.16,-292.02C334.8,-290.57 339.49,-289.2 344,-288 399.36,-273.32 462.17,-260.62 512.85,-251.34"/>
<polygon fill="black" stroke="black" points="513.6,-254.76 522.82,-249.53 512.35,-247.87 513.6,-254.76"/>
</g>
<!-- 14&#45;&gt;13 -->
<g id="edge26" class="edge">
<title>14&#45;&gt;13</title>
<path fill="none" stroke="black" d="M256.97,-287.81C243.08,-279.16 228.7,-267.24 221,-252 211.32,-232.86 213.59,-208.36 217.7,-189.92"/>
<polygon fill="black" stroke="black" points="221.12,-190.66 220.19,-180.1 214.34,-188.94 221.12,-190.66"/>
</g>
<!-- 14&#45;&gt;15 -->
<g id="edge27" class="edge">
<title>14&#45;&gt;15</title>
<path fill="none" stroke="black" d="M290.28,-287.7C289.07,-279.98 287.61,-270.71 286.26,-262.11"/>
<polygon fill="black" stroke="black" points="289.7,-261.44 284.69,-252.1 282.78,-262.53 289.7,-261.44"/>
</g>
<!-- 15&#45;&gt;1 -->
<g id="edge28" class="edge">
<title>15&#45;&gt;1</title>
<path fill="none" stroke="black" d="M310.89,-215.91C344.28,-196.64 401.3,-165.23 453,-144 563.71,-98.54 697.21,-60.39 779.87,-38.61"/>
<polygon fill="black" stroke="black" points="780.9,-41.96 789.69,-36.04 779.13,-35.19 780.9,-41.96"/>
</g>
<!-- 15&#45;&gt;13 -->
<g id="edge29" class="edge">
<title>15&#45;&gt;13</title>
<path fill="none" stroke="black" d="M268.16,-215.7C261.51,-207.39 253.42,-197.28 246.11,-188.14"/>
<polygon fill="black" stroke="black" points="248.66,-185.73 239.68,-180.1 243.2,-190.1 248.66,-185.73"/>
</g>
<!-- 16 -->
<g id="node17" class="node">
<title>16</title>
<polygon fill="none" stroke="black" points="1479,-180 1345,-180 1345,-144 1479,-144 1479,-180"/>
<text text-anchor="middle" x="1412" y="-158.3" font-family="Times,serif" font-size="14.00">libsignal&#45;cli&#45;utils</text>
</g>
<!-- 16&#45;&gt;0 -->
<g id="edge30" class="edge">
<title>16&#45;&gt;0</title>
<path fill="none" stroke="black" d="M1350.43,-143.97C1312.7,-133.53 1264.4,-120.16 1225.76,-109.47"/>
<polygon fill="black" stroke="black" points="1226.21,-105.96 1215.64,-106.67 1224.35,-112.71 1226.21,-105.96"/>
</g>
<!-- 17 -->
<g id="node18" class="node">
<title>17</title>
<polygon fill="none" stroke="black" points="1390.5,-324 1285.5,-324 1285.5,-288 1390.5,-288 1390.5,-324"/>
<text text-anchor="middle" x="1338" y="-302.3" font-family="Times,serif" font-size="14.00">libsignal&#45;net</text>
</g>
<!-- 17&#45;&gt;0 -->
<g id="edge33" class="edge">
<title>17&#45;&gt;0</title>
<path fill="none" stroke="black" d="M1307.37,-287.92C1293.05,-278.75 1276.63,-266.36 1265,-252 1231.95,-211.17 1247.7,-186.62 1217,-144 1209.34,-133.37 1199.26,-123.25 1189.65,-114.75"/>
<polygon fill="black" stroke="black" points="1191.64,-111.85 1181.76,-108.03 1187.1,-117.18 1191.64,-111.85"/>
</g>
<!-- 17&#45;&gt;2 -->
<g id="edge31" class="edge">
<title>17&#45;&gt;2</title>
<path fill="none" stroke="black" d="M1385.92,-287.89C1409.09,-278.7 1436.82,-266.32 1460,-252 1481.2,-238.9 1480.78,-227.29 1503,-216 1562.2,-185.92 1585.12,-201.34 1648,-180 1648.1,-179.97 1648.19,-179.93 1648.29,-179.9"/>
<polygon fill="black" stroke="black" points="1649.24,-183.28 1657.39,-176.52 1646.8,-176.72 1649.24,-183.28"/>
</g>
<!-- 17&#45;&gt;3 -->
<g id="edge38" class="edge">
<title>17&#45;&gt;3</title>
<path fill="none" stroke="black" d="M1302.03,-287.99C1248.71,-262.83 1154.07,-218.36 1146,-216 1035.92,-183.74 902.34,-170.97 824.39,-166.02"/>
<polygon fill="black" stroke="black" points="824.43,-162.52 814.23,-165.4 824,-169.5 824.43,-162.52"/>
</g>
<!-- 17&#45;&gt;5 -->
<g id="edge34" class="edge">
<title>17&#45;&gt;5</title>
<path fill="none" stroke="black" d="M1390.79,-292.08C1433.9,-281.53 1495.5,-266.45 1544.56,-254.44"/>
<polygon fill="black" stroke="black" points="1545.63,-257.78 1554.52,-252.01 1543.97,-250.98 1545.63,-257.78"/>
</g>
<!-- 17&#45;&gt;8 -->
<g id="edge32" class="edge">
<title>17&#45;&gt;8</title>
<path fill="none" stroke="black" d="M1285.35,-299.94C1163.99,-288.27 863.06,-259.33 707.13,-244.34"/>
<polygon fill="black" stroke="black" points="707.36,-240.85 697.07,-243.37 706.69,-247.81 707.36,-240.85"/>
</g>
<!-- 17&#45;&gt;9 -->
<g id="edge36" class="edge">
<title>17&#45;&gt;9</title>
<path fill="none" stroke="black" d="M1285.43,-291.42C1244.84,-280.94 1188.14,-266.29 1142.67,-254.55"/>
<polygon fill="black" stroke="black" points="1143.42,-251.12 1132.86,-252.01 1141.66,-257.9 1143.42,-251.12"/>
</g>
<!-- 17&#45;&gt;11 -->
<g id="edge37" class="edge">
<title>17&#45;&gt;11</title>
<path fill="none" stroke="black" d="M1285.23,-297.17C1198.89,-284.37 1027.58,-258.96 932.86,-244.92"/>
<polygon fill="black" stroke="black" points="933.23,-241.43 922.82,-243.43 932.2,-248.36 933.23,-241.43"/>
</g>
<!-- 18 -->
<g id="node19" class="node">
<title>18</title>
<polygon fill="none" stroke="black" points="1450.5,-252 1307.5,-252 1307.5,-216 1450.5,-216 1450.5,-252"/>
<text text-anchor="middle" x="1379" y="-230.3" font-family="Times,serif" font-size="14.00">libsignal&#45;net&#45;infra</text>
</g>
<!-- 17&#45;&gt;18 -->
<g id="edge35" class="edge">
<title>17&#45;&gt;18</title>
<path fill="none" stroke="black" d="M1348.13,-287.7C1352.85,-279.64 1358.56,-269.89 1363.78,-260.98"/>
<polygon fill="black" stroke="black" points="1366.95,-262.5 1368.98,-252.1 1360.91,-258.96 1366.95,-262.5"/>
</g>
<!-- 18&#45;&gt;0 -->
<g id="edge40" class="edge">
<title>18&#45;&gt;0</title>
<path fill="none" stroke="black" d="M1366.14,-215.8C1350.66,-196.13 1323,-164.07 1293,-144 1272.44,-130.25 1247.77,-119.21 1225.24,-110.84"/>
<polygon fill="black" stroke="black" points="1226.32,-107.52 1215.73,-107.42 1223.95,-114.1 1226.32,-107.52"/>
</g>
<!-- 18&#45;&gt;2 -->
<g id="edge39" class="edge">
<title>18&#45;&gt;2</title>
<path fill="none" stroke="black" d="M1450.8,-218.8C1455.6,-217.85 1460.37,-216.91 1465,-216 1546.33,-199.96 1568.88,-204.71 1648,-180 1648.1,-179.97 1648.19,-179.94 1648.29,-179.91"/>
<polygon fill="black" stroke="black" points="1649.18,-183.31 1657.44,-176.67 1646.85,-176.71 1649.18,-183.31"/>
</g>
<!-- 19 -->
<g id="node20" class="node">
<title>19</title>
<polygon fill="none" stroke="black" points="1589,-396 1449,-396 1449,-360 1589,-360 1589,-396"/>
<text text-anchor="middle" x="1519" y="-374.3" font-family="Times,serif" font-size="14.00">libsignal&#45;net&#45;chat</text>
</g>
<!-- 19&#45;&gt;0 -->
<g id="edge41" class="edge">
<title>19&#45;&gt;0</title>
<path fill="none" stroke="black" d="M1500.02,-359.94C1477.51,-340.41 1438.2,-308.48 1400,-288 1358,-265.48 1335.25,-282.94 1299,-252 1257.4,-216.49 1277.11,-184.18 1240,-144 1229.06,-132.15 1214.93,-121.74 1201.55,-113.35"/>
<polygon fill="black" stroke="black" points="1203.28,-110.3 1192.91,-108.13 1199.66,-116.3 1203.28,-110.3"/>
</g>
<!-- 19&#45;&gt;5 -->
<g id="edge42" class="edge">
<title>19&#45;&gt;5</title>
<path fill="none" stroke="black" d="M1531.67,-359.87C1549.95,-335.14 1583.89,-289.24 1605.14,-260.51"/>
<polygon fill="black" stroke="black" points="1608.16,-262.31 1611.29,-252.19 1602.53,-258.15 1608.16,-262.31"/>
</g>
<!-- 19&#45;&gt;9 -->
<g id="edge44" class="edge">
<title>19&#45;&gt;9</title>
<path fill="none" stroke="black" d="M1448.92,-362.57C1444.21,-361.68 1439.54,-360.81 1435,-360 1333.16,-341.73 1300.32,-364.23 1205,-324 1180.43,-313.63 1179.19,-302.79 1157,-288 1140.98,-277.32 1122.77,-266.39 1106.94,-257.24"/>
<polygon fill="black" stroke="black" points="1108.35,-254.02 1097.93,-252.08 1104.87,-260.09 1108.35,-254.02"/>
</g>
<!-- 19&#45;&gt;14 -->
<g id="edge45" class="edge">
<title>19&#45;&gt;14</title>
<path fill="none" stroke="black" d="M1448.91,-365.69C1433.49,-363.52 1417.22,-361.47 1402,-360 992.19,-320.53 494.22,-310.03 340.48,-307.63"/>
<polygon fill="black" stroke="black" points="340.48,-304.13 330.43,-307.48 340.38,-311.13 340.48,-304.13"/>
</g>
<!-- 19&#45;&gt;17 -->
<g id="edge43" class="edge">
<title>19&#45;&gt;17</title>
<path fill="none" stroke="black" d="M1474.72,-359.88C1449.65,-350.18 1418.1,-337.98 1391.63,-327.74"/>
<polygon fill="black" stroke="black" points="1392.72,-324.41 1382.13,-324.07 1390.2,-330.94 1392.72,-324.41"/>
</g>
<!-- 20 -->
<g id="node21" class="node">
<title>20</title>
<polygon fill="none" stroke="black" points="1639,-180 1497,-180 1497,-144 1639,-144 1639,-180"/>
<text text-anchor="middle" x="1568" y="-158.3" font-family="Times,serif" font-size="14.00">libsignal&#45;net&#45;grpc</text>
</g>
<!-- 20&#45;&gt;0 -->
<g id="edge46" class="edge">
<title>20&#45;&gt;0</title>
<path fill="none" stroke="black" d="M1496.94,-145.71C1493.92,-145.12 1490.93,-144.55 1488,-144 1397.39,-127.09 1292.14,-110.7 1225.56,-100.73"/>
<polygon fill="black" stroke="black" points="1226.02,-97.26 1215.62,-99.25 1224.99,-104.18 1226.02,-97.26"/>
</g>
<!-- 21 -->
<g id="node22" class="node">
<title>21</title>
<polygon fill="none" stroke="black" points="1498,-612 1402,-612 1402,-576 1498,-576 1498,-612"/>
<text text-anchor="middle" x="1450" y="-590.3" font-family="Times,serif" font-size="14.00">libsignal&#45;ffi</text>
</g>
<!-- 21&#45;&gt;0 -->
<g id="edge48" class="edge">
<title>21&#45;&gt;0</title>
<path fill="none" stroke="black" d="M1498.34,-589.86C1625.4,-580.27 1959,-546.07 1959,-451 1959,-451 1959,-451 1959,-233 1959,-161.51 1892.57,-167.36 1825,-144 1715.6,-106.18 1371.98,-95.12 1225.84,-92.08"/>
<polygon fill="black" stroke="black" points="1225.73,-88.57 1215.66,-91.87 1225.59,-95.57 1225.73,-88.57"/>
</g>
<!-- 21&#45;&gt;6 -->
<g id="edge52" class="edge">
<title>21&#45;&gt;6</title>
<path fill="none" stroke="black" d="M1436.44,-575.91C1428.75,-565.8 1419.25,-552.55 1412,-540 1385.84,-494.72 1362.17,-438.4 1349.26,-405.79"/>
<polygon fill="black" stroke="black" points="1352.51,-404.5 1345.61,-396.47 1346,-407.06 1352.51,-404.5"/>
</g>
<!-- 21&#45;&gt;9 -->
<g id="edge51" class="edge">
<title>21&#45;&gt;9</title>
<path fill="none" stroke="black" d="M1452.37,-575.86C1457.31,-532.57 1463.56,-418.13 1402,-360 1321.98,-284.44 1255.48,-373.14 1157,-324 1127.28,-309.17 1101.27,-280.82 1084.96,-260.09"/>
<polygon fill="black" stroke="black" points="1087.64,-257.83 1078.79,-252.01 1082.08,-262.08 1087.64,-257.83"/>
</g>
<!-- 21&#45;&gt;17 -->
<g id="edge49" class="edge">
<title>21&#45;&gt;17</title>
<path fill="none" stroke="black" d="M1498.07,-588.39C1566.6,-581.05 1688.08,-564.93 1724,-540 1791.66,-493.05 1822.56,-421.69 1768,-360 1744.11,-332.99 1514.73,-316.7 1401.12,-310.23"/>
<polygon fill="black" stroke="black" points="1401.01,-306.72 1390.83,-309.66 1400.62,-313.71 1401.01,-306.72"/>
</g>
<!-- 21&#45;&gt;19 -->
<g id="edge50" class="edge">
<title>21&#45;&gt;19</title>
<path fill="none" stroke="black" d="M1455.53,-575.85C1467.52,-538.68 1495.97,-450.44 1510.35,-405.82"/>
<polygon fill="black" stroke="black" points="1513.71,-406.82 1513.44,-396.23 1507.04,-404.68 1513.71,-406.82"/>
</g>
<!-- 22 -->
<g id="node23" class="node">
<title>22</title>
<polygon fill="none" stroke="black" points="738,-540 610,-540 610,-504 738,-504 738,-540"/>
<text text-anchor="middle" x="674" y="-518.3" font-family="Times,serif" font-size="14.00">libsignal&#45;bridge</text>
</g>
<!-- 21&#45;&gt;22 -->
<g id="edge47" class="edge">
<title>21&#45;&gt;22</title>
<path fill="none" stroke="black" d="M1401.75,-588.65C1270.45,-576.8 905.99,-543.93 748.3,-529.7"/>
<polygon fill="black" stroke="black" points="748.49,-526.21 738.22,-528.79 747.86,-533.18 748.49,-526.21"/>
</g>
<!-- 22&#45;&gt;0 -->
<g id="edge57" class="edge">
<title>22&#45;&gt;0</title>
<path fill="none" stroke="black" d="M609.67,-519.54C486.45,-515.94 222.01,-504.13 139,-468 84.14,-444.12 38,-438.83 38,-379 38,-379 38,-379 38,-233 38,-97.93 407.12,-142.66 949,-108 996.95,-104.93 1050.99,-100.54 1092.24,-96.98"/>
<polygon fill="black" stroke="black" points="1092.78,-100.45 1102.44,-96.1 1092.18,-93.48 1092.78,-100.45"/>
</g>
<!-- 22&#45;&gt;2 -->
<g id="edge53" class="edge">
<title>22&#45;&gt;2</title>
<path fill="none" stroke="black" d="M738.04,-520.6C927.89,-518.21 1483.17,-502.1 1623,-396 1681.67,-351.48 1686.15,-323.2 1705,-252 1710.46,-231.36 1705.11,-207.65 1698.85,-189.9"/>
<polygon fill="black" stroke="black" points="1701.99,-188.29 1695.14,-180.2 1695.45,-190.79 1701.99,-188.29"/>
</g>
<!-- 22&#45;&gt;3 -->
<g id="edge63" class="edge">
<title>22&#45;&gt;3</title>
<path fill="none" stroke="black" d="M609.86,-517.96C493.14,-511.76 255.71,-495.84 231,-468 225.16,-461.42 232.07,-395.39 236,-360 239.57,-327.83 225.42,-312.13 247,-288 247.64,-287.28 513.07,-216.23 514,-216 574.73,-201.25 644.42,-186.37 693.91,-176.15"/>
<polygon fill="black" stroke="black" points="694.75,-179.55 703.84,-174.1 693.34,-172.69 694.75,-179.55"/>
</g>
<!-- 22&#45;&gt;4 -->
<g id="edge54" class="edge">
<title>22&#45;&gt;4</title>
<path fill="none" stroke="black" d="M675.81,-503.87C678.37,-479.67 683.06,-435.21 686.11,-406.39"/>
<polygon fill="black" stroke="black" points="689.61,-406.5 687.18,-396.19 682.65,-405.77 689.61,-406.5"/>
</g>
<!-- 22&#45;&gt;5 -->
<g id="edge58" class="edge">
<title>22&#45;&gt;5</title>
<path fill="none" stroke="black" d="M738.23,-519.36C856.86,-515.57 1118.01,-503.57 1335,-468 1465.2,-446.65 1529.7,-489.3 1623,-396 1657.41,-361.59 1648.52,-336.08 1641,-288 1639.64,-279.31 1637.1,-270.1 1634.39,-261.84"/>
<polygon fill="black" stroke="black" points="1637.67,-260.62 1631.07,-252.33 1631.06,-262.93 1637.67,-260.62"/>
</g>
<!-- 22&#45;&gt;6 -->
<g id="edge64" class="edge">
<title>22&#45;&gt;6</title>
<path fill="none" stroke="black" stroke-dasharray="1,5" d="M738.18,-519.68C865.45,-516.3 1145.1,-504.8 1233,-468 1266.81,-453.85 1297.95,-424.97 1317.61,-403.93"/>
<polygon fill="black" stroke="black" points="1320.42,-406.05 1324.57,-396.3 1315.24,-401.34 1320.42,-406.05"/>
</g>
<!-- 22&#45;&gt;7 -->
<g id="edge59" class="edge">
<title>22&#45;&gt;7</title>
<path fill="none" stroke="black" d="M644.81,-503.87C601.11,-478.23 518.66,-429.85 470.22,-401.43"/>
<polygon fill="black" stroke="black" points="471.69,-398.23 461.29,-396.19 468.15,-404.27 471.69,-398.23"/>
</g>
<!-- 22&#45;&gt;8 -->
<g id="edge55" class="edge">
<title>22&#45;&gt;8</title>
<path fill="none" stroke="black" d="M609.97,-519.2C527.72,-513.02 387.85,-488.59 323,-396 313.82,-382.89 314.23,-373.38 323,-360 364.79,-296.22 446.97,-264.81 512.72,-249.44"/>
<polygon fill="black" stroke="black" points="513.72,-252.8 522.71,-247.19 512.19,-245.97 513.72,-252.8"/>
</g>
<!-- 22&#45;&gt;9 -->
<g id="edge62" class="edge">
<title>22&#45;&gt;9</title>
<path fill="none" stroke="black" d="M658.05,-503.87C630.29,-471.96 579.46,-402.8 617,-360 657.5,-313.83 832.32,-342.11 891,-324 942.51,-308.1 997.22,-278.1 1031.72,-257.35"/>
<polygon fill="black" stroke="black" points="1033.75,-260.22 1040.47,-252.03 1030.11,-254.24 1033.75,-260.22"/>
</g>
<!-- 22&#45;&gt;12 -->
<g id="edge65" class="edge">
<title>22&#45;&gt;12</title>
<path fill="none" stroke="black" d="M609.61,-521.5C491.31,-521.24 245.19,-514.89 176,-468 133.88,-439.45 131.45,-410.46 138,-360 139.1,-351.51 141.16,-342.43 143.37,-334.24"/>
<polygon fill="black" stroke="black" points="146.78,-335.02 146.18,-324.44 140.05,-333.09 146.78,-335.02"/>
</g>
<!-- 22&#45;&gt;14 -->
<g id="edge66" class="edge">
<title>22&#45;&gt;14</title>
<path fill="none" stroke="black" d="M609.83,-517.55C497.59,-510.84 275.27,-494.37 252,-468 220.24,-432.01 236.48,-405.42 252,-360 255.44,-349.93 261.66,-340.28 268.23,-332.05"/>
<polygon fill="black" stroke="black" points="271,-334.2 274.83,-324.32 265.68,-329.65 271,-334.2"/>
</g>
<!-- 22&#45;&gt;17 -->
<g id="edge60" class="edge">
<title>22&#45;&gt;17</title>
<path fill="none" stroke="black" d="M738.19,-521.9C822.65,-521.09 974.47,-512.71 1095,-468 1181.92,-435.76 1268.88,-367.22 1311.31,-330.84"/>
<polygon fill="black" stroke="black" points="1313.68,-333.41 1318.94,-324.22 1309.09,-328.12 1313.68,-333.41"/>
</g>
<!-- 22&#45;&gt;19 -->
<g id="edge61" class="edge">
<title>22&#45;&gt;19</title>
<path fill="none" stroke="black" d="M738.21,-520.73C848.77,-519.08 1081.62,-510.33 1273,-468 1277.86,-466.93 1391.36,-425.61 1462.47,-399.66"/>
<polygon fill="black" stroke="black" points="1464.02,-402.82 1472.21,-396.1 1461.61,-396.24 1464.02,-402.82"/>
</g>
<!-- 23 -->
<g id="node24" class="node">
<title>23</title>
<polygon fill="none" stroke="black" points="1086,-468 914,-468 914,-432 1086,-432 1086,-468"/>
<text text-anchor="middle" x="1000" y="-446.3" font-family="Times,serif" font-size="14.00">libsignal&#45;bridge&#45;types</text>
</g>
<!-- 22&#45;&gt;23 -->
<g id="edge56" class="edge">
<title>22&#45;&gt;23</title>
<path fill="none" stroke="black" d="M738.02,-507.25C787.25,-496.68 855.86,-481.95 910.52,-470.21"/>
<polygon fill="black" stroke="black" points="911.51,-473.58 920.55,-468.06 910.04,-466.74 911.51,-473.58"/>
</g>
<!-- 23&#45;&gt;0 -->
<g id="edge70" class="edge">
<title>23&#45;&gt;0</title>
<path fill="none" stroke="black" d="M1024.64,-431.95C1037.37,-422.36 1052.59,-409.59 1064,-396 1111.36,-339.59 1124.3,-322.38 1146,-252 1159.96,-206.74 1161.16,-151.12 1160.36,-118.51"/>
<polygon fill="black" stroke="black" points="1163.85,-118.26 1160.02,-108.38 1156.85,-118.49 1163.85,-118.26"/>
</g>
<!-- 23&#45;&gt;2 -->
<g id="edge67" class="edge">
<title>23&#45;&gt;2</title>
<path fill="none" stroke="black" d="M1073.02,-431.89C1109.98,-422.54 1155.3,-410.02 1195,-396 1232.53,-382.74 1239.6,-373.62 1277,-360 1330.52,-340.51 1349.11,-349.58 1400,-324 1408.9,-319.53 1534.21,-220.67 1543,-216 1586.56,-192.84 1602.02,-197.87 1648,-180 1648.09,-179.96 1648.19,-179.93 1648.28,-179.89"/>
<polygon fill="black" stroke="black" points="1649.34,-183.24 1657.29,-176.24 1646.71,-176.75 1649.34,-183.24"/>
</g>
<!-- 23&#45;&gt;3 -->
<g id="edge77" class="edge">
<title>23&#45;&gt;3</title>
<path fill="none" stroke="black" d="M996.51,-431.66C991.95,-412.45 982.39,-381.38 965,-360 958.09,-351.5 807.15,-260.3 800,-252 784.37,-233.87 773.54,-208.78 766.95,-189.86"/>
<polygon fill="black" stroke="black" points="770.26,-188.73 763.8,-180.33 763.61,-190.93 770.26,-188.73"/>
</g>
<!-- 23&#45;&gt;4 -->
<g id="edge68" class="edge">
<title>23&#45;&gt;4</title>
<path fill="none" stroke="black" d="M921.28,-431.98C876.87,-422.3 820.11,-409.77 761.51,-396.33"/>
<polygon fill="black" stroke="black" points="762.24,-392.91 751.71,-394.08 760.67,-399.73 762.24,-392.91"/>
</g>
<!-- 23&#45;&gt;5 -->
<g id="edge71" class="edge">
<title>23&#45;&gt;5</title>
<path fill="none" stroke="black" d="M1086.23,-444.14C1247.34,-434.67 1579.55,-413.18 1598,-396 1634.44,-362.09 1633.09,-298.82 1628.67,-262.51"/>
<polygon fill="black" stroke="black" points="1632.08,-261.6 1627.24,-252.17 1625.14,-262.56 1632.08,-261.6"/>
</g>
<!-- 23&#45;&gt;6 -->
<g id="edge78" class="edge">
<title>23&#45;&gt;6</title>
<path fill="none" stroke="black" stroke-dasharray="1,5" d="M1086.28,-433.31C1139.64,-423.31 1209.47,-409.7 1271,-396 1272.45,-395.68 1273.91,-395.35 1275.39,-395.01"/>
<polygon fill="black" stroke="black" points="1276.3,-398.39 1285.24,-392.71 1274.71,-391.58 1276.3,-398.39"/>
</g>
<!-- 23&#45;&gt;7 -->
<g id="edge72" class="edge">
<title>23&#45;&gt;7</title>
<path fill="none" stroke="black" d="M913.83,-433.33C910.85,-432.87 907.9,-432.42 905,-432 781.2,-414.01 638.41,-398.76 542.38,-389.3"/>
<polygon fill="black" stroke="black" points="542.65,-385.81 532.36,-388.32 541.97,-392.78 542.65,-385.81"/>
</g>
<!-- 23&#45;&gt;8 -->
<g id="edge69" class="edge">
<title>23&#45;&gt;8</title>
<path fill="none" stroke="black" d="M991.08,-431.98C979.92,-412.18 959.07,-379.71 933,-360 862.48,-306.69 766.43,-273.38 697.43,-254.69"/>
<polygon fill="black" stroke="black" points="698.02,-251.22 687.45,-252.03 696.22,-257.99 698.02,-251.22"/>
</g>
<!-- 23&#45;&gt;9 -->
<g id="edge75" class="edge">
<title>23&#45;&gt;9</title>
<path fill="none" stroke="black" d="M1017.78,-431.98C1026.81,-422.3 1037.08,-409.45 1043,-396 1062.34,-352.08 1066.58,-295.59 1067.25,-262.53"/>
<polygon fill="black" stroke="black" points="1070.75,-262.3 1067.35,-252.27 1063.75,-262.23 1070.75,-262.3"/>
</g>
<!-- 23&#45;&gt;11 -->
<g id="edge76" class="edge">
<title>23&#45;&gt;11</title>
<path fill="none" stroke="black" d="M1002.03,-431.84C1003.15,-421.48 1004.44,-408 1005,-396 1005.75,-380.02 1008.85,-375.53 1005,-360 996.3,-324.88 992.62,-313.56 967,-288 954.11,-275.14 937.45,-264.68 921.39,-256.56"/>
<polygon fill="black" stroke="black" points="922.56,-253.24 912.03,-252.04 919.52,-259.54 922.56,-253.24"/>
</g>
<!-- 23&#45;&gt;12 -->
<g id="edge80" class="edge">
<title>23&#45;&gt;12</title>
<path fill="none" stroke="black" d="M913.85,-433.13C910.87,-432.72 907.91,-432.35 905,-432 770.6,-416.05 426.11,-436.62 297,-396 252.83,-382.1 208.37,-351.85 180.55,-330.48"/>
<polygon fill="black" stroke="black" points="182.51,-327.56 172.47,-324.16 178.19,-333.08 182.51,-327.56"/>
</g>
<!-- 23&#45;&gt;14 -->
<g id="edge81" class="edge">
<title>23&#45;&gt;14</title>
<path fill="none" stroke="black" d="M913.85,-433.14C910.87,-432.73 907.91,-432.35 905,-432 840.67,-424.28 374.43,-435.4 323,-396 304.15,-381.56 297.04,-354.75 294.41,-334.32"/>
<polygon fill="black" stroke="black" points="297.89,-333.91 293.41,-324.31 290.92,-334.61 297.89,-333.91"/>
</g>
<!-- 23&#45;&gt;17 -->
<g id="edge73" class="edge">
<title>23&#45;&gt;17</title>
<path fill="none" stroke="black" d="M1065.69,-431.92C1094.57,-423.14 1128.36,-411.08 1157,-396 1180.6,-383.58 1181.74,-373.05 1205,-360 1227.38,-347.44 1253.34,-336.39 1276.36,-327.68"/>
<polygon fill="black" stroke="black" points="1277.87,-330.85 1286.02,-324.09 1275.43,-324.29 1277.87,-330.85"/>
</g>
<!-- 23&#45;&gt;19 -->
<g id="edge74" class="edge">
<title>23&#45;&gt;19</title>
<path fill="none" stroke="black" d="M1086.3,-437.96C1167.74,-427.46 1293.22,-411.07 1402,-396 1413.83,-394.36 1426.33,-392.59 1438.59,-390.83"/>
<polygon fill="black" stroke="black" points="1439.4,-394.25 1448.8,-389.35 1438.4,-387.32 1439.4,-394.25"/>
</g>
<!-- 24 -->
<g id="node25" class="node">
<title>24</title>
<polygon fill="none" stroke="black" points="924.5,-396 769.5,-396 769.5,-360 924.5,-360 924.5,-396"/>
<text text-anchor="middle" x="847" y="-374.3" font-family="Times,serif" font-size="14.00">signal&#45;neon&#45;futures</text>
</g>
<!-- 23&#45;&gt;24 -->
<g id="edge79" class="edge">
<title>23&#45;&gt;24</title>
<path fill="none" stroke="black" stroke-dasharray="1,5" d="M962.57,-431.88C941.75,-422.35 915.65,-410.41 893.52,-400.28"/>
<polygon fill="black" stroke="black" points="894.86,-397.05 884.31,-396.07 891.94,-403.41 894.86,-397.05"/>
</g>
<!-- 25 -->
<g id="node26" class="node">
<title>25</title>
<polygon fill="none" stroke="black" points="896,-468 702,-468 702,-432 896,-432 896,-468"/>
<text text-anchor="middle" x="799" y="-446.3" font-family="Times,serif" font-size="14.00">signal&#45;neon&#45;futures&#45;tests</text>
</g>
<!-- 25&#45;&gt;24 -->
<g id="edge82" class="edge">
<title>25&#45;&gt;24</title>
<path fill="none" stroke="black" d="M810.87,-431.7C816.5,-423.47 823.35,-413.48 829.57,-404.42"/>
<polygon fill="black" stroke="black" points="832.5,-406.33 835.27,-396.1 826.73,-402.37 832.5,-406.33"/>
</g>
<!-- 26 -->
<g id="node27" class="node">
<title>26</title>
<polygon fill="none" stroke="black" points="1714.5,-540 1531.5,-540 1531.5,-504 1714.5,-504 1714.5,-540"/>
<text text-anchor="middle" x="1623" y="-518.3" font-family="Times,serif" font-size="14.00">libsignal&#45;bridge&#45;testing</text>
</g>
<!-- 26&#45;&gt;0 -->
<g id="edge85" class="edge">
<title>26&#45;&gt;0</title>
<path fill="none" stroke="black" d="M1711.34,-503.97C1756.02,-494.11 1804.6,-481.09 1823,-468 1861.87,-440.35 1883,-426.7 1883,-379 1883,-379 1883,-379 1883,-233 1883,-99.73 1404.65,-89.29 1225.59,-90.06"/>
<polygon fill="black" stroke="black" points="1225.49,-86.56 1215.51,-90.11 1225.53,-93.56 1225.49,-86.56"/>
</g>
<!-- 26&#45;&gt;2 -->
<g id="edge83" class="edge">
<title>26&#45;&gt;2</title>
<path fill="none" stroke="black" d="M1714.93,-504.41C1741.06,-496.51 1768.29,-484.93 1790,-468 1826.67,-439.41 1845,-425.5 1845,-379 1845,-379 1845,-379 1845,-305 1845,-241.17 1772.78,-198.74 1725.99,-177.95"/>
<polygon fill="black" stroke="black" points="1727.29,-174.7 1716.72,-173.96 1724.52,-181.13 1727.29,-174.7"/>
</g>
<!-- 26&#45;&gt;5 -->
<g id="edge86" class="edge">
<title>26&#45;&gt;5</title>
<path fill="none" stroke="black" d="M1714.69,-506.08C1735.53,-498.21 1755.25,-486.23 1768,-468 1795.5,-428.66 1787.92,-403.67 1768,-360 1747.13,-314.24 1700.31,-278.77 1665.7,-257.49"/>
<polygon fill="black" stroke="black" points="1667.12,-254.26 1656.74,-252.13 1663.52,-260.27 1667.12,-254.26"/>
</g>
<!-- 26&#45;&gt;7 -->
<g id="edge87" class="edge">
<title>26&#45;&gt;7</title>
<path fill="none" stroke="black" d="M1531.37,-518.94C1329.47,-513.89 851.63,-498.96 693,-468 653,-460.19 550.76,-423.4 486.76,-399.64"/>
<polygon fill="black" stroke="black" points="487.81,-396.29 477.22,-396.08 485.37,-402.85 487.81,-396.29"/>
</g>
<!-- 26&#45;&gt;9 -->
<g id="edge90" class="edge">
<title>26&#45;&gt;9</title>
<path fill="none" stroke="black" d="M1626.28,-503.93C1631.55,-470.85 1637.62,-397.97 1598,-360 1546.18,-310.33 1346.32,-342.64 1277,-324 1238.56,-313.66 1231.61,-303.61 1195,-288 1169.82,-277.26 1141.73,-265.59 1118.29,-255.95"/>
<polygon fill="black" stroke="black" points="1119.47,-252.65 1108.89,-252.08 1116.81,-259.12 1119.47,-252.65"/>
</g>
<!-- 26&#45;&gt;17 -->
<g id="edge88" class="edge">
<title>26&#45;&gt;17</title>
<path fill="none" stroke="black" d="M1698.54,-503.89C1716.77,-496.04 1734.11,-484.61 1745,-468 1771.32,-427.86 1776.67,-396.07 1745,-360 1722.68,-334.59 1509.57,-317.71 1400.97,-310.69"/>
<polygon fill="black" stroke="black" points="1401,-307.19 1390.79,-310.05 1400.55,-314.18 1401,-307.19"/>
</g>
<!-- 26&#45;&gt;19 -->
<g id="edge89" class="edge">
<title>26&#45;&gt;19</title>
<path fill="none" stroke="black" d="M1610.46,-503.87C1592.34,-479.14 1558.73,-433.24 1537.68,-404.51"/>
<polygon fill="black" stroke="black" points="1540.32,-402.19 1531.59,-396.19 1534.67,-406.33 1540.32,-402.19"/>
</g>
<!-- 26&#45;&gt;23 -->
<g id="edge84" class="edge">
<title>26&#45;&gt;23</title>
<path fill="none" stroke="black" d="M1531.41,-510.71C1415.07,-497.64 1215.2,-475.18 1096.54,-461.85"/>
<polygon fill="black" stroke="black" points="1096.71,-458.34 1086.38,-460.71 1095.93,-465.3 1096.71,-458.34"/>
</g>
<!-- 27 -->
<g id="node28" class="node">
<title>27</title>
<polygon fill="none" stroke="black" points="164,-684 64,-684 64,-648 164,-648 164,-684"/>
<text text-anchor="middle" x="114" y="-662.3" font-family="Times,serif" font-size="14.00">libsignal&#45;jni</text>
</g>
<!-- 28 -->
<g id="node29" class="node">
<title>28</title>
<polygon fill="none" stroke="black" points="182,-612 46,-612 46,-576 182,-576 182,-612"/>
<text text-anchor="middle" x="114" y="-590.3" font-family="Times,serif" font-size="14.00">libsignal&#45;jni&#45;impl</text>
</g>
<!-- 27&#45;&gt;28 -->
<g id="edge91" class="edge">
<title>27&#45;&gt;28</title>
<path fill="none" stroke="black" d="M114,-647.7C114,-639.98 114,-630.71 114,-622.11"/>
<polygon fill="black" stroke="black" points="117.5,-622.1 114,-612.1 110.5,-622.1 117.5,-622.1"/>
</g>
<!-- 28&#45;&gt;0 -->
<g id="edge93" class="edge">
<title>28&#45;&gt;0</title>
<path fill="none" stroke="black" d="M86.98,-575.96C53.27,-552.37 0,-506.33 0,-451 0,-451 0,-451 0,-233 0,-27.53 263.05,-149.78 949,-108 996.96,-105.08 1051,-100.68 1092.25,-97.09"/>
<polygon fill="black" stroke="black" points="1092.79,-100.55 1102.45,-96.19 1092.18,-93.58 1092.79,-100.55"/>
</g>
<!-- 28&#45;&gt;3 -->
<g id="edge95" class="edge">
<title>28&#45;&gt;3</title>
<path fill="none" stroke="black" d="M106.31,-575.91C95.21,-549.62 76,-497.45 76,-451 76,-451 76,-451 76,-377 76,-336.55 71.14,-320.66 95,-288 133.05,-235.92 159.55,-235.59 221,-216 307.43,-188.44 570.11,-172.28 693.57,-166.02"/>
<polygon fill="black" stroke="black" points="693.84,-169.51 703.65,-165.52 693.49,-162.52 693.84,-169.51"/>
</g>
<!-- 28&#45;&gt;9 -->
<g id="edge94" class="edge">
<title>28&#45;&gt;9</title>
<path fill="none" stroke="black" d="M155.09,-575.93C232.11,-543.51 402.88,-469.68 541,-396 568.1,-381.54 571.09,-370.38 600,-360 706.9,-321.63 750.72,-373.39 853,-324 873.95,-313.88 870.87,-299.67 891,-288 920.27,-271.03 955.48,-259.02 986.7,-250.78"/>
<polygon fill="black" stroke="black" points="987.85,-254.1 996.68,-248.24 986.12,-247.32 987.85,-254.1"/>
</g>
<!-- 28&#45;&gt;22 -->
<g id="edge92" class="edge">
<title>28&#45;&gt;22</title>
<path fill="none" stroke="black" d="M182.11,-584.49C287.82,-571.27 490.59,-545.93 599.86,-532.27"/>
<polygon fill="black" stroke="black" points="600.33,-535.74 609.82,-531.02 599.46,-528.79 600.33,-535.74"/>
</g>
<!-- 29 -->
<g id="node30" class="node">
<title>29</title>
<polygon fill="none" stroke="black" points="1077.5,-684 922.5,-684 922.5,-648 1077.5,-648 1077.5,-684"/>
<text text-anchor="middle" x="1000" y="-662.3" font-family="Times,serif" font-size="14.00">libsignal&#45;jni&#45;testing</text>
</g>
<!-- 29&#45;&gt;23 -->
<g id="edge97" class="edge">
<title>29&#45;&gt;23</title>
<path fill="none" stroke="black" d="M1000,-647.85C1000,-610.83 1000,-523.18 1000,-478.39"/>
<polygon fill="black" stroke="black" points="1003.5,-478.23 1000,-468.23 996.5,-478.23 1003.5,-478.23"/>
</g>
<!-- 29&#45;&gt;26 -->
<g id="edge96" class="edge">
<title>29&#45;&gt;26</title>
<path fill="none" stroke="black" d="M1077.81,-662.03C1200.05,-656.49 1430.96,-642.31 1507,-612 1543.28,-597.54 1577.85,-568.31 1599.66,-547.29"/>
<polygon fill="black" stroke="black" points="1602.16,-549.75 1606.83,-540.24 1597.25,-544.76 1602.16,-549.75"/>
</g>
<!-- 29&#45;&gt;28 -->
<g id="edge98" class="edge">
<title>29&#45;&gt;28</title>
<path fill="none" stroke="black" d="M922.15,-658.85C754.35,-645.59 360.2,-614.45 192.14,-601.17"/>
<polygon fill="black" stroke="black" points="192.37,-597.68 182.13,-600.38 191.82,-604.66 192.37,-597.68"/>
</g>
<!-- 30 -->
<g id="node31" class="node">
<title>30</title>
<polygon fill="none" stroke="black" points="1172,-612 1056,-612 1056,-576 1172,-576 1172,-612"/>
<text text-anchor="middle" x="1114" y="-590.3" font-family="Times,serif" font-size="14.00">libsignal&#45;node</text>
</g>
<!-- 30&#45;&gt;9 -->
<g id="edge101" class="edge">
<title>30&#45;&gt;9</title>
<path fill="none" stroke="black" d="M1112.68,-575.71C1108.97,-529.05 1097.5,-396.77 1079,-288 1077.55,-279.5 1075.61,-270.31 1073.71,-262.01"/>
<polygon fill="black" stroke="black" points="1077.07,-261.02 1071.36,-252.09 1070.26,-262.63 1077.07,-261.02"/>
</g>
<!-- 30&#45;&gt;22 -->
<g id="edge99" class="edge">
<title>30&#45;&gt;22</title>
<path fill="none" stroke="black" d="M1055.57,-583.7C976.31,-571.09 834.68,-548.56 748.05,-534.78"/>
<polygon fill="black" stroke="black" points="748.45,-531.3 738.03,-533.19 747.35,-538.21 748.45,-531.3"/>
</g>
<!-- 30&#45;&gt;26 -->
<g id="edge100" class="edge">
<title>30&#45;&gt;26</title>
<path fill="none" stroke="black" d="M1172.39,-584.97C1257.51,-573.26 1416.91,-551.34 1521.49,-536.96"/>
<polygon fill="black" stroke="black" points="1522.01,-540.42 1531.44,-535.59 1521.05,-533.49 1522.01,-540.42"/>
</g>
</g>
</svg>
